<svg xmlns="http://www.w3.org/2000/svg" width="731" height="585" viewBox="0 0 731 585">
  <metadata><?xpacket begin="﻿" id="W5M0MpCehiHzreSzNTczkc9d"?>
<x:xmpmeta xmlns:x="adobe:ns:meta/" x:xmptk="Adobe XMP Core 5.6-c145 79.163499, 2018/08/13-16:40:22        ">
   <rdf:RDF xmlns:rdf="http://www.w3.org/1999/02/22-rdf-syntax-ns#">
      <rdf:Description rdf:about=""
            xmlns:xmp="http://ns.adobe.com/xap/1.0/">
         <xmp:CreatorTool>Adobe Photoshop CC 2019 (Windows)</xmp:CreatorTool>
      </rdf:Description>
   </rdf:RDF>
</x:xmpmeta>
                                                                                                    
                                                                                                    
                                                                                                    
                                                                                                    
                                                                                                    
                                                                                                    
                                                                                                    
                                                                                                    
                                                                                                    
                                                                                                    
                                                                                                    
                                                                                                    
                                                                                                    
                                                                                                    
                                                                                                    
                                                                                                    
                                                                                                    
                                                                                                    
                                                                                                    
                                                                                                    
                           
<?xpacket end="w"?></metadata>
<defs>
    <style>
      .cls-1 {
        fill: #262626;
      }

      .cls-1, .cls-2 {
        fill-rule: evenodd;
      }

      .cls-2 {
        fill: #d71010;
      }
    </style>
  </defs>
  <path id="Forma_11" data-name="Forma 11" class="cls-1" d="M0.93,239.7L62.543,584.106l222.078-.855-28.43-181.716L110.157,502.282,36.66,205.431m24.174,2.219,68.663,247.9,126.858-79.758L190.067,199.231m13.439-9.181,67.682,200.255,27.364,187.373,64.412-12.451-16.14-131.939,108.824,84.4,16.639-107-134.72-58.821L396.657,206l-71.129-63.81-11.56,157.763L235.057,165.539m143.491-25.062L473.108,362.8l29.743,137.436,63.592-45.414-36.3-118.168,44.994-154.968L500.653,79.741m55.961,262.49,38.1,117.922L672,366.937,591.774,195.952M545.15,82.866L694.121,367.6l36.14-17.786-59.9-170.078,60.4-109.292L653.242,0.152M370.634,331.737l24.3-17.091-1.309-56.785,15.486,53.016,21.511-3.85-19.545,18.282,18.273,39.773-27.7-34.814"/>
  <path id="Forma_10" data-name="Forma 10" class="cls-2" d="M123.728,271.663l27.285,78.97,41.262-34.1-20.731-37.6m275.183-96.292,26.8,55.15,50.524-73.952-33.68-24.812M593.49,350.069l9.259,41,36.714-47.265-29.254-52.977m-3.435-186.958,32.2,34.2,41.673-58.046L652.667,49.843"/>
</svg>
